<mxfile host="app.diagrams.net" modified="2020-11-19T23:35:17.079Z" agent="5.0 (Windows)" etag="4cxX8fLQbK1Ro6EggwKD" version="13.9.2" type="github">
  <diagram id="kgpKYQtTHZ0yAKxKKP6v" name="Page-1">
    <mxGraphModel dx="1422" dy="763" grid="1" gridSize="10" guides="1" tooltips="1" connect="1" arrows="1" fold="1" page="1" pageScale="1" pageWidth="850" pageHeight="1100" math="0" shadow="0">
      <root>
        <mxCell id="0" />
        <mxCell id="1" parent="0" />
        <mxCell id="4zp0VxhXPeI74Q4uIaUx-20" value="" style="rounded=0;whiteSpace=wrap;html=1;" vertex="1" parent="1">
          <mxGeometry x="40" y="50" width="640" height="400" as="geometry" />
        </mxCell>
        <mxCell id="4zp0VxhXPeI74Q4uIaUx-2" value="CollectionDatabase" style="shape=umlLifeline;perimeter=lifelinePerimeter;container=1;collapsible=0;recursiveResize=0;rounded=0;shadow=0;strokeWidth=1;" vertex="1" parent="1">
          <mxGeometry x="300" y="80" width="130" height="320" as="geometry" />
        </mxCell>
        <mxCell id="3nuBFxr9cyL0pnOWT2aG-1" value="User" style="shape=umlLifeline;perimeter=lifelinePerimeter;container=1;collapsible=0;recursiveResize=0;rounded=0;shadow=0;strokeWidth=1;" parent="1" vertex="1">
          <mxGeometry x="117" y="80" width="130" height="320" as="geometry" />
        </mxCell>
        <mxCell id="3nuBFxr9cyL0pnOWT2aG-2" value="" style="points=[];perimeter=orthogonalPerimeter;rounded=0;shadow=0;strokeWidth=1;" parent="3nuBFxr9cyL0pnOWT2aG-1" vertex="1">
          <mxGeometry x="62" y="70" width="10" height="240" as="geometry" />
        </mxCell>
        <mxCell id="3nuBFxr9cyL0pnOWT2aG-3" value="Submit" style="verticalAlign=bottom;startArrow=oval;endArrow=block;startSize=8;shadow=0;strokeWidth=1;" parent="3nuBFxr9cyL0pnOWT2aG-1" target="3nuBFxr9cyL0pnOWT2aG-2" edge="1">
          <mxGeometry relative="1" as="geometry">
            <mxPoint x="-15" y="70" as="sourcePoint" />
          </mxGeometry>
        </mxCell>
        <mxCell id="4zp0VxhXPeI74Q4uIaUx-16" value="&lt;font style=&quot;font-size: 16px&quot;&gt;Found&lt;/font&gt;" style="text;strokeColor=none;fillColor=none;html=1;fontSize=24;fontStyle=1;verticalAlign=middle;align=center;" vertex="1" parent="3nuBFxr9cyL0pnOWT2aG-1">
          <mxGeometry x="78" y="120" width="70" height="20" as="geometry" />
        </mxCell>
        <mxCell id="3nuBFxr9cyL0pnOWT2aG-5" value="CollectionDatabase" style="shape=umlLifeline;perimeter=lifelinePerimeter;container=1;collapsible=0;recursiveResize=0;rounded=0;shadow=0;strokeWidth=1;" parent="1" vertex="1">
          <mxGeometry x="300" y="80" width="130" height="310" as="geometry" />
        </mxCell>
        <mxCell id="3nuBFxr9cyL0pnOWT2aG-6" value="" style="points=[];perimeter=orthogonalPerimeter;rounded=0;shadow=0;strokeWidth=1;" parent="3nuBFxr9cyL0pnOWT2aG-5" vertex="1">
          <mxGeometry x="60" y="80" width="10" height="230" as="geometry" />
        </mxCell>
        <mxCell id="3nuBFxr9cyL0pnOWT2aG-7" value="display(errNoMatch)" style="verticalAlign=bottom;endArrow=open;dashed=1;endSize=8;exitX=0;exitY=0.95;shadow=0;strokeWidth=1;" parent="1" edge="1">
          <mxGeometry relative="1" as="geometry">
            <mxPoint x="190" y="372" as="targetPoint" />
            <mxPoint x="360" y="372.49999999999955" as="sourcePoint" />
          </mxGeometry>
        </mxCell>
        <mxCell id="3nuBFxr9cyL0pnOWT2aG-8" value="search(item)" style="verticalAlign=bottom;endArrow=block;entryX=0;entryY=0;shadow=0;strokeWidth=1;" parent="1" source="3nuBFxr9cyL0pnOWT2aG-2" target="3nuBFxr9cyL0pnOWT2aG-6" edge="1">
          <mxGeometry relative="1" as="geometry">
            <mxPoint x="275" y="160" as="sourcePoint" />
          </mxGeometry>
        </mxCell>
        <mxCell id="4zp0VxhXPeI74Q4uIaUx-4" value="DatabaseEntry" style="shape=umlLifeline;perimeter=lifelinePerimeter;container=1;collapsible=0;recursiveResize=0;rounded=0;shadow=0;strokeWidth=1;" vertex="1" parent="1">
          <mxGeometry x="510" y="80" width="130" height="320" as="geometry" />
        </mxCell>
        <mxCell id="4zp0VxhXPeI74Q4uIaUx-5" value="" style="points=[];perimeter=orthogonalPerimeter;rounded=0;shadow=0;strokeWidth=1;" vertex="1" parent="4zp0VxhXPeI74Q4uIaUx-4">
          <mxGeometry x="60" y="100" width="10" height="80" as="geometry" />
        </mxCell>
        <mxCell id="4zp0VxhXPeI74Q4uIaUx-7" value="databaseSearch(item)" style="verticalAlign=bottom;endArrow=block;shadow=0;strokeWidth=1;" edge="1" parent="1">
          <mxGeometry relative="1" as="geometry">
            <mxPoint x="370" y="180.0000000000001" as="sourcePoint" />
            <mxPoint x="570" y="180" as="targetPoint" />
          </mxGeometry>
        </mxCell>
        <mxCell id="4zp0VxhXPeI74Q4uIaUx-14" value="return(uniqueID) [each instance]" style="verticalAlign=bottom;endArrow=open;dashed=1;endSize=8;shadow=0;strokeWidth=1;" edge="1" parent="1">
          <mxGeometry relative="1" as="geometry">
            <mxPoint x="370" y="251" as="targetPoint" />
            <mxPoint x="570" y="251" as="sourcePoint" />
          </mxGeometry>
        </mxCell>
        <mxCell id="4zp0VxhXPeI74Q4uIaUx-15" value="display(itemInstances)" style="verticalAlign=bottom;endArrow=open;dashed=1;endSize=8;shadow=0;strokeWidth=1;" edge="1" parent="1">
          <mxGeometry relative="1" as="geometry">
            <mxPoint x="190" y="270" as="targetPoint" />
            <mxPoint x="360" y="270" as="sourcePoint" />
          </mxGeometry>
        </mxCell>
        <mxCell id="4zp0VxhXPeI74Q4uIaUx-17" value="" style="endArrow=none;dashed=1;html=1;exitX=-0.005;exitY=0.49;exitDx=0;exitDy=0;exitPerimeter=0;entryX=1.005;entryY=0.49;entryDx=0;entryDy=0;entryPerimeter=0;" edge="1" parent="1" source="4zp0VxhXPeI74Q4uIaUx-9">
          <mxGeometry width="50" height="50" relative="1" as="geometry">
            <mxPoint x="76.16000000000008" y="301.05999999999995" as="sourcePoint" />
            <mxPoint x="657.9000000000001" y="301.9000000000001" as="targetPoint" />
          </mxGeometry>
        </mxCell>
        <mxCell id="4zp0VxhXPeI74Q4uIaUx-18" value="&lt;font style=&quot;font-size: 16px&quot;&gt;Not Found&lt;/font&gt;" style="text;strokeColor=none;fillColor=none;html=1;fontSize=24;fontStyle=1;verticalAlign=middle;align=center;" vertex="1" parent="1">
          <mxGeometry x="180" y="313" width="100" height="20" as="geometry" />
        </mxCell>
        <mxCell id="4zp0VxhXPeI74Q4uIaUx-9" value="&lt;span style=&quot;background-color: transparent&quot;&gt;alt&lt;/span&gt;" style="shape=umlFrame;whiteSpace=wrap;html=1;swimlaneFillColor=none;fillColor=#f5f5f5;strokeColor=#666666;fontColor=#333333;" vertex="1" parent="1">
          <mxGeometry x="100" y="200" width="555" height="210" as="geometry" />
        </mxCell>
      </root>
    </mxGraphModel>
  </diagram>
</mxfile>
